<svg width="51" height="51" viewBox="0 0 51 51" fill="none" xmlns="http://www.w3.org/2000/svg">
<circle cx="25.887" cy="25.4314" r="25" fill="#94ABFF"/>
<path d="M9.22733 29.047V22.2959H10.8326V29.047H9.22733ZM6.5719 26.4215V24.9213H13.488V26.4215H6.5719Z" fill="white"/>
<path d="M14.7511 30.9223V29.6171L18.9218 25.6564C19.2719 25.3264 19.5319 25.0363 19.7019 24.7863C19.872 24.5362 19.982 24.3062 20.032 24.0962C20.092 23.8761 20.122 23.6711 20.122 23.4811C20.122 23.001 19.957 22.6309 19.6269 22.3709C19.2969 22.1008 18.8118 21.9658 18.1717 21.9658C17.6616 21.9658 17.1965 22.0558 16.7765 22.2359C16.3664 22.4159 16.0114 22.6909 15.7113 23.061L14.3461 22.0108C14.7561 21.4607 15.3062 21.0357 15.9963 20.7356C16.6965 20.4256 17.4766 20.2705 18.3367 20.2705C19.0968 20.2705 19.757 20.3956 20.317 20.6456C20.8871 20.8856 21.3222 21.2307 21.6223 21.6808C21.9323 22.1308 22.0873 22.6659 22.0873 23.286C22.0873 23.6261 22.0423 23.9661 21.9523 24.3062C21.8623 24.6362 21.6923 24.9863 21.4422 25.3564C21.1922 25.7264 20.8271 26.1415 20.347 26.6016L16.7615 30.0071L16.3564 29.272H22.4924V30.9223H14.7511Z" fill="white"/>
<path d="M24.9347 31.0273C24.5947 31.0273 24.3046 30.9123 24.0646 30.6822C23.8246 30.4422 23.7045 30.1421 23.7045 29.7821C23.7045 29.402 23.8246 29.102 24.0646 28.8819C24.3046 28.6519 24.5947 28.5369 24.9347 28.5369C25.2748 28.5369 25.5648 28.6519 25.8049 28.8819C26.0449 29.102 26.1649 29.402 26.1649 29.7821C26.1649 30.1421 26.0449 30.4422 25.8049 30.6822C25.5648 30.9123 25.2748 31.0273 24.9347 31.0273Z" fill="white"/>
<path d="M30.8743 31.0723C30.1342 31.0723 29.4091 30.9673 28.6989 30.7572C27.9988 30.5372 27.4087 30.2372 26.9287 29.8571L27.7688 28.3418C28.1489 28.6519 28.6089 28.9019 29.149 29.092C29.6891 29.282 30.2542 29.377 30.8443 29.377C31.5444 29.377 32.0895 29.237 32.4796 28.9569C32.8696 28.6669 33.0646 28.2768 33.0646 27.7868C33.0646 27.3067 32.8846 26.9266 32.5246 26.6466C32.1645 26.3665 31.5844 26.2265 30.7843 26.2265H29.8241V24.8913L32.8246 21.3207L33.0796 22.0558H27.4387V20.4206H34.5949V21.7258L31.5944 25.2964L30.5742 24.6963H31.1593C32.4495 24.6963 33.4147 24.9863 34.0548 25.5664C34.7049 26.1365 35.03 26.8716 35.03 27.7718C35.03 28.3618 34.8799 28.9069 34.5799 29.407C34.2798 29.9071 33.8198 30.3122 33.1997 30.6222C32.5896 30.9223 31.8144 31.0723 30.8743 31.0723Z" fill="white"/>
<path d="M38.406 29.137L38.451 26.7816L42.6367 22.911H44.887L41.3314 26.4815L40.3413 27.3067L38.406 29.137ZM36.8757 30.9223V19.7905H38.751V30.9223H36.8757ZM42.9217 30.9223L39.9962 27.3067L41.1814 25.8064L45.2021 30.9223H42.9217Z" fill="white"/>
</svg>
