<svg width="61" height="61" viewBox="0 0 61 61" fill="none" xmlns="http://www.w3.org/2000/svg">
<circle cx="30.5" cy="30.467" r="30" fill="#F23936"/>
<path d="M41.6004 39.467C42.1755 38.3419 42.5 37.0673 42.5 35.717C42.5 31.1606 38.8064 27.467 34.25 27.467C29.6936 27.467 26 31.1606 26 35.717C26 40.2734 29.6936 43.967 34.25 43.967H44C44 43.967 42.5 42.467 41.6215 39.5108M40.775 30.467C40.9226 29.74 41 28.9876 41 28.217C41 22.0038 35.9631 16.967 29.75 16.967C23.5368 16.967 18.5 22.0038 18.5 28.217C18.5 29.5319 18.7256 30.7942 19.1401 31.967C20.7515 36.4846 17 39.467 17 39.467H26.75" stroke="white" stroke-width="2" stroke-linecap="round" stroke-linejoin="round"/>
</svg>
