<svg width="61" height="61" viewBox="0 0 61 61" fill="none" xmlns="http://www.w3.org/2000/svg">
<circle cx="30.5" cy="30.467" r="30" fill="#45C646"/>
<path d="M35.3077 24.6593H41.0769C42.1346 24.6593 43 25.5247 43 26.5824V40.0439C43 41.1016 42.1346 41.967 41.0769 41.967H19.9231C18.8654 41.967 18 41.1016 18 40.0439V26.5824C18 25.5247 18.8654 24.6593 19.9231 24.6593H25.6923" stroke="white" stroke-width="1.7" stroke-miterlimit="10" stroke-linecap="round" stroke-linejoin="round"/>
<path d="M22.8077 29.467L30.5 36.1978L38.1923 29.467" stroke="white" stroke-width="1.7" stroke-miterlimit="10" stroke-linecap="round" stroke-linejoin="round"/>
<path d="M27.2308 33.3132L22.8077 37.1594" stroke="white" stroke-width="1.7" stroke-miterlimit="10" stroke-linecap="round" stroke-linejoin="round"/>
<path d="M38.1923 37.1594L33.7692 33.3132" stroke="white" stroke-width="1.7" stroke-miterlimit="10" stroke-linecap="round" stroke-linejoin="round"/>
<path d="M27.1346 19.467C25.7885 19.467 24.7308 20.6209 24.7308 21.967C24.7308 23.3132 25.7885 24.467 27.1346 24.467C29.25 24.467 31.3654 24.9478 33.2885 25.9093L35.2115 26.8709V21.294V16.967L33.2885 17.9286C31.4615 18.8901 29.3462 19.467 27.1346 19.467Z" stroke="white" stroke-width="1.7" stroke-miterlimit="10" stroke-linecap="round" stroke-linejoin="round"/>
<path d="M25.6923 23.8901L28 28.5055H30.4038V19.467" stroke="white" stroke-width="1.7" stroke-miterlimit="10" stroke-linecap="round" stroke-linejoin="round"/>
</svg>
